HIERARCHY
ROOT Hips
{
	OFFSET 0.000000 0.000000 0.000000
	CHANNELS 6 Xposition Yposition Zposition Xrotation Yrotation Zrotation
	JOINT LeftUpLeg_virtual
	{
		OFFSET 0.000000 0.000000 0.000000
		CHANNELS 3 Xrotation Yrotation Zrotation
		JOINT LeftUpLeg
		{
			OFFSET 11.394100 -6.187798 -0.413800
			CHANNELS 3 Xrotation Yrotation Zrotation
			JOINT LeftLeg
			{
				OFFSET 0.430247 -32.302673 3.732800
				CHANNELS 3 Xrotation Yrotation Zrotation
				JOINT LeftFoot
				{
					OFFSET -0.430247 -48.264931 -6.423300
					CHANNELS 3 Xrotation Yrotation Zrotation
					JOINT LeftToeBase
					{
						OFFSET 4.230900 -16.068199 23.438400
						CHANNELS 3 Xrotation Yrotation Zrotation
						JOINT LeftToe_End
						{
							OFFSET 4.510700 0.695400 19.974600
							CHANNELS 3 Xrotation Yrotation Zrotation
							End Site
							{
								OFFSET 0 0 0
							}
						}
					}
				}
			}
		}
	}
	JOINT RightUpLeg_virtual
	{
		OFFSET 0.000000 0.000000 0.000000
		CHANNELS 3 Xrotation Yrotation Zrotation
		JOINT RightUpLeg
		{
			OFFSET -11.333700 -6.187798 -0.413800
			CHANNELS 3 Xrotation Yrotation Zrotation
			JOINT RightLeg
			{
				OFFSET -0.430392 -32.302628 3.733000
				CHANNELS 3 Xrotation Yrotation Zrotation
				JOINT RightFoot
				{
					OFFSET 0.430392 -48.264973 -6.423500
					CHANNELS 3 Xrotation Yrotation Zrotation
					JOINT RightToeBase
					{
						OFFSET -4.230900 -16.068199 23.438400
						CHANNELS 3 Xrotation Yrotation Zrotation
						JOINT RightToe_End
						{
							OFFSET -4.510700 0.695400 19.974600
							CHANNELS 3 Xrotation Yrotation Zrotation
							End Site
							{
								OFFSET 0 0 0
							}
						}
					}
				}
			}
		}
	}
	JOINT Spine_virtual
	{
		OFFSET 0.000000 0.000000 0.000000
		CHANNELS 3 Xrotation Yrotation Zrotation
		JOINT Spine
		{
			OFFSET -0.002400 12.777504 0.315300
			CHANNELS 3 Xrotation Yrotation Zrotation
			JOINT Spine1
			{
				OFFSET -0.002067 5.816869 0.032633
				CHANNELS 3 Xrotation Yrotation Zrotation
				JOINT Spine1_split
				{
					OFFSET -0.002067 5.816869 0.032633
					CHANNELS 3 Xrotation Yrotation Zrotation
					JOINT Spine2
					{
						OFFSET -0.002067 5.816869 0.032633
						CHANNELS 3 Xrotation Yrotation Zrotation
						JOINT Neck_virtual
						{
							OFFSET 0.000000 0.000000 0.000000
							CHANNELS 3 Xrotation Yrotation Zrotation
							JOINT Neck
							{
								OFFSET -0.003700 21.199493 -0.826900
								CHANNELS 3 Xrotation Yrotation Zrotation
								JOINT Head
								{
									OFFSET 0.000000 20.442200 4.834800
									CHANNELS 3 Xrotation Yrotation Zrotation
									JOINT HeadTop_End
									{
										OFFSET 0.000000 34.668396 4.968400
										CHANNELS 3 Xrotation Yrotation Zrotation
										End Site
										{
											OFFSET 0 0 0
										}
									}
								}
							}
						}
						JOINT LeftShoulder_virtual
						{
							OFFSET 0.000000 0.000000 0.000000
							CHANNELS 3 Xrotation Yrotation Zrotation
							JOINT LeftShoulder
							{
								OFFSET 3.288150 8.794197 -1.372250
								CHANNELS 3 Xrotation Yrotation Zrotation
								JOINT LeftShoulder_split
								{
									OFFSET 3.288150 8.794197 -1.372250
									CHANNELS 3 Xrotation Yrotation Zrotation
									JOINT LeftArm
									{
										OFFSET 11.953299 -2.279007 -0.146200
										CHANNELS 3 Xrotation Yrotation Zrotation
										JOINT LeftForeArm
										{
											OFFSET 18.448900 0.000000 0.000000
											CHANNELS 3 Xrotation Yrotation Zrotation
											JOINT LeftHand
											{
												OFFSET 29.527798 0.000000 0.000000
												CHANNELS 3 Xrotation Yrotation Zrotation
												End Site
												{
													OFFSET 0 0 0
												}
											}
										}
									}
								}
							}
						}
						JOINT RightShoulder_virtual
						{
							OFFSET 0.000000 0.000000 0.000000
							CHANNELS 3 Xrotation Yrotation Zrotation
							JOINT RightShoulder
							{
								OFFSET -3.249400 8.794197 -1.372250
								CHANNELS 3 Xrotation Yrotation Zrotation
								JOINT RightShoulder_split
								{
									OFFSET -3.249400 8.794197 -1.372250
									CHANNELS 3 Xrotation Yrotation Zrotation
									JOINT RightArm
									{
										OFFSET -11.953299 -2.279007 -0.146200
										CHANNELS 3 Xrotation Yrotation Zrotation
										JOINT RightForeArm
										{
											OFFSET -18.448900 0.000000 0.000000
											CHANNELS 3 Xrotation Yrotation Zrotation
											JOINT RightHand
											{
												OFFSET -29.527802 0.000000 0.000000
												CHANNELS 3 Xrotation Yrotation Zrotation
												End Site
												{
													OFFSET 0 0 0
												}
											}
										}
									}
								}
							}
						}
					}
				}
			}
		}
	}
}
MOTION
Frames: 6
Frame Time: 0.03333333
-0.345147 42.649296 -5.892464 0.000000 0.000000 0.000000 67.741038 -1.897060 1.015189 -6.507569 15.041825 12.921179 18.779455 12.111706 1.046838 -38.937717 3.673427 -7.501250 -56.115041 8.247785 -16.496679 0.000000 0.000000 0.000000 69.769652 -5.870711 1.759598 -3.151901 -0.025399 -5.882472 11.782651 4.058618 -1.510092 -17.190534 8.639276 6.052051 -74.149182 -3.919145 11.031849 0.000000 0.000000 0.000000 72.785877 -0.899180 -0.835307 -1.842774 1.928528 -0.454661 2.248753 1.458618 0.138820 0.660457 -0.742396 0.932937 0.000000 0.000000 0.000000 2.179976 -0.267751 0.113335 -9.293059 0.692700 2.731787 10.033611 9.933259 -5.711005 0.000000 0.000000 0.000000 2.334679 -0.471208 1.042817 2.719703 1.353684 1.022584 -0.017222 0.782647 -3.234054 -43.450679 -56.966373 -49.176737 0.977181 -20.734364 0.078590 0.000000 0.000000 0.000000 1.578259 -0.222998 1.040958 0.211192 4.704534 15.180657 4.985651 9.370019 -1.902929 -56.361772 56.728635 52.569108 -0.903990 20.491986 0.401408 0.000000 0.000000 0.000000 
-0.579566 42.779339 -5.829407 0.000000 0.000000 0.000000 67.655476 -1.962692 1.179579 -6.050464 15.468147 12.867800 18.436950 12.450540 0.991115 -38.898269 3.536594 -6.354592 -56.242124 8.389459 -16.648514 0.000000 0.000000 0.000000 69.720870 -6.187611 2.107690 -3.364461 -0.075892 -5.859851 11.941041 4.036510 -1.448455 -17.229386 8.559228 6.369087 -73.891165 -3.860444 10.964706 0.000000 0.000000 0.000000 73.054863 -0.955408 -0.571217 -1.654144 1.948010 -0.544557 2.350354 1.446631 0.129005 0.791511 -1.185182 0.969693 0.000000 0.000000 0.000000 2.167441 -0.272707 0.170213 -9.675475 0.526334 2.696590 10.002021 9.841944 -6.084374 0.000000 0.000000 0.000000 2.423363 -0.453124 1.045313 2.693968 1.472677 1.063146 0.563433 0.973829 -2.783297 -43.850016 -56.979029 -49.539478 1.089175 -20.055601 -0.044605 0.000000 0.000000 0.000000 1.730957 -0.169615 1.096952 0.154128 4.979471 15.041871 5.016990 9.091868 -2.121937 -56.093793 55.988666 51.821239 -0.873975 20.890130 0.593506 0.000000 0.000000 0.000000 
-0.784343 43.077606 -5.809921 0.000000 0.000000 0.000000 67.663153 -2.197601 1.402500 -5.711254 15.691330 12.870934 17.717717 12.479152 1.084332 -38.175669 3.227016 -5.682706 -56.484923 8.547688 -16.851453 0.000000 0.000000 0.000000 69.803994 -6.624288 2.519714 -3.644502 -0.278684 -5.802126 11.983244 3.939815 -1.354928 -17.117216 8.436151 6.739249 -73.839208 -3.785731 10.876043 0.000000 0.000000 0.000000 73.257201 -1.078404 -0.290993 -1.359639 1.933656 -0.650080 2.469890 1.399904 0.130973 0.856667 -1.595574 0.946757 0.000000 0.000000 0.000000 2.149649 -0.330995 0.269104 -9.815935 0.477930 2.638950 9.794401 9.623330 -6.222881 0.000000 0.000000 0.000000 2.566822 -0.501680 1.045321 2.708178 1.519153 1.458111 1.181679 1.196771 -2.326583 -43.930230 -57.356288 -49.874933 1.170138 -19.877633 -0.196408 0.000000 0.000000 0.000000 1.941878 -0.163296 1.168280 -0.018025 5.643924 14.835763 5.158200 8.848782 -2.241744 -53.940695 54.523908 49.212319 -0.844503 22.961542 0.772439 0.000000 0.000000 0.000000 
-0.928322 43.498463 -5.894157 0.000000 0.000000 0.000000 67.671322 -2.572082 1.665852 -5.499364 15.723574 12.888553 16.771278 12.031120 1.264861 -36.943848 2.771333 -5.653025 -57.440730 8.494308 -16.548051 0.000000 0.000000 0.000000 69.908257 -7.102588 2.936438 -3.890244 -0.589110 -5.671899 11.942492 3.722020 -1.281881 -17.001347 8.251974 7.062574 -73.922550 -3.717406 10.793357 0.000000 0.000000 0.000000 73.383826 -1.357005 0.074456 -1.020414 1.880382 -0.766990 2.579925 1.311437 0.132587 0.778681 -1.826546 0.927771 0.000000 0.000000 0.000000 2.155072 -0.440921 0.394639 -9.701066 0.553422 2.556203 9.365134 9.280611 -6.126307 0.000000 0.000000 0.000000 2.737896 -0.599075 1.051380 2.750780 1.588201 2.222806 1.779998 1.318265 -1.951917 -43.920408 -57.916261 -50.231817 1.255164 -20.404616 -0.352254 0.000000 0.000000 0.000000 2.186865 -0.199722 1.247452 -0.309069 6.757347 14.574895 5.257660 8.720305 -2.304784 -50.505656 52.521949 45.452310 -0.804157 26.237531 0.929276 0.000000 0.000000 0.000000 
-1.044474 43.952492 -6.010345 0.000000 0.000000 0.000000 67.665352 -2.987324 1.974599 -5.183905 15.559027 12.732541 15.602090 11.307965 1.550524 -35.878188 2.237735 -5.864804 -58.693175 8.180518 -15.803280 0.000000 0.000000 0.000000 69.980834 -7.557641 3.336078 -4.072375 -0.985191 -5.452451 11.982924 3.339321 -1.283265 -17.043202 7.951203 7.228961 -73.976911 -3.675643 10.748098 0.000000 0.000000 0.000000 73.400450 -1.763820 0.507928 -0.675598 1.798300 -0.895060 2.676563 1.182806 0.126658 0.757442 -2.041747 0.854661 0.000000 0.000000 0.000000 2.214310 -0.589093 0.532902 -9.284824 0.745775 2.449438 8.759327 8.909309 -5.850205 0.000000 0.000000 0.000000 2.936376 -0.731142 1.057089 2.797321 1.747899 3.280457 2.149932 1.344930 -1.689472 -43.830195 -58.346065 -50.443464 1.387434 -21.514990 -0.479957 0.000000 0.000000 0.000000 2.442376 -0.278317 1.333470 -0.724231 8.368089 14.221742 5.274432 8.563950 -2.403030 -46.492937 50.210838 41.218897 -0.772726 30.168638 1.054858 0.000000 0.000000 0.000000 
-1.123762 44.401905 -6.073929 0.000000 0.000000 0.000000 67.583424 -3.426747 2.329290 -4.821543 15.236427 12.364687 14.487419 10.575140 1.873828 -35.238312 1.914330 -6.063017 -58.791878 7.816408 -15.309946 0.000000 0.000000 0.000000 70.018120 -7.983350 3.736142 -4.230839 -1.469422 -5.146891 12.210964 2.804560 -1.364379 -17.268673 7.508895 7.296739 -73.929066 -3.691257 10.755220 0.000000 0.000000 0.000000 73.304042 -2.208514 0.950400 -0.347428 1.717404 -1.011677 2.777370 1.026685 0.115637 0.772769 -2.074851 0.647574 0.000000 0.000000 0.000000 2.347342 -0.750151 0.664833 -8.607676 0.983845 2.322383 8.066572 8.488744 -5.445122 0.000000 0.000000 0.000000 3.162167 -0.874239 1.050944 2.828132 1.969428 4.537410 2.282766 1.345517 -1.466774 -43.499381 -58.411853 -50.300675 1.595243 -23.060588 -0.573374 0.000000 0.000000 0.000000 2.730835 -0.370981 1.420822 -1.225778 10.523483 13.804916 5.009924 8.241243 -2.552965 -42.397313 47.745532 37.010767 -0.744552 34.167410 1.158468 0.000000 0.000000 0.000000 
